<svg xmlns="http://www.w3.org/2000/svg" viewBox="0 0 57 56.4"><path d="M11.1 35.7s-.1 0 0 0c-.3 0-5.8-.4-9-4.2-1.7-2.1-2.4-4.8-2-8 .4-3 1.7-5.4 3.8-6.9 3-2.2 6.9-2.2 8.7-2.1C12.8 11.2 14.4.7 25.9 0c10.6-.7 14 8.4 14.8 11.4 1.9-.5 6.1-1.3 9.9.7 2.9 1.5 4.9 4.3 5.9 8.3 2.3 9-6.3 13.6-6.4 13.6-.4.2-1 .1-1.2-.4-.2-.4-.1-1 .4-1.2.3-.2 7.5-4 5.5-11.6-.9-3.5-2.6-5.9-5-7.2-4.2-2.2-9.4-.3-9.5-.3-.2.1-.5.1-.7-.1-.2-.1-.4-.4-.4-.6 0-.3-2.1-11.5-13.2-10.8-12 .7-11.7 13.1-11.7 13.7 0 .3-.1.5-.3.7-.2.2-.5.3-.7.2 0 0-5-.8-8.4 1.7-1.7 1.3-2.7 3.2-3.1 5.7-.4 2.7.2 5 1.6 6.7C6.1 33.7 11 34 11.1 34c.5 0 .9.4.8.9 0 .4-.4.8-.8.8z" fill="#000000"/><path d="M40.1 39.2H8.7c-.5 0-.9-.4-.9-.9s.4-.9.9-.9H40c.2 0 4.6-.1 5.8-4.3.8-2.6-.2-5-2.5-6.2-.9-.5-2.4-.6-3.7 0-1.1.6-1.7 1.6-2 3.1-.1.5-.5.8-1 .7-.5-.1-.8-.5-.7-1 .4-2.6 1.8-3.8 2.9-4.4 1.6-.8 3.7-.8 5.3 0 3 1.5 4.4 4.7 3.4 8.2-1.2 4.5-5.4 5.7-7.4 5.7zM35.5 56.4c-1.5 0-2.8-.5-3.8-1.5-1.4-1.4-1.9-3.6-1.2-5.5.7-1.8 2.2-2.9 4.3-3 .5 0 .9.3.9.8s-.3.9-.8.9c-1.4.1-2.3.8-2.7 1.9-.5 1.2-.1 2.7.8 3.7 1.1 1.1 2.8 1.3 4.9.5 2.3-.9 2.9-3.8 2.4-6.2-1-4.3-5.6-4.3-5.8-4.3H3.1c-.5 0-.9-.4-.9-.9s.4-.8.9-.8H34.5c2.2 0 6.5 1.2 7.5 5.7.8 3.7-.6 7.1-3.4 8.2-1.2.3-2.2.5-3.1.5zM49.5 50c-1.5 0-3-.9-3.2-3-.1-.5.3-.9.8-1 .5-.1.9.3 1 .8.2 1.3 1.1 1.5 1.6 1.4 1-.1 2.1-.9 2.1-2.2 0-.8-.2-1.3-.6-1.8-.9-.8-2.4-.7-2.4-.7H42c-.5 0-.9-.4-.9-.9s.4-.9.9-.9h6.8s2.2-.1 3.7 1.2c.8.8 1.2 1.8 1.2 3 0 2.3-1.9 3.9-3.7 4-.4.1-.4.1-.5.1z" fill="#000000"/><path d="M24.2 32.5l-5.5-9.6c-.2-.4-.1-1 .3-1.2.4-.2 1-.1 1.2.3l3.8 6.7 8-16.3c.2-.4.7-.6 1.2-.4.4.2.6.7.4 1.2l-9.4 19.3z" fill="#000000"/></svg>
