<svg xmlns="http://www.w3.org/2000/svg" viewBox="0 0 68 67"><path d="M34 15.5c-7.3 0-13.3 6-13.3 13.3 0 3.5 1.4 6.9 3.9 9.4 2.1 2.2 3.3 5 3.3 8v2.1c0 1 .7 1.9 1.6 2.2.4 1.7 2.3 3 4.5 3 2.3 0 4.1-1.3 4.5-3 .9-.3 1.6-1.2 1.6-2.2v-2.1c0-3 1.2-5.9 3.3-8 2.5-2.5 3.9-5.8 3.9-9.4 0-7.4-6-13.3-13.3-13.3m4.4 30.1h-8.7c0-.5-.1-1-.1-1.5h9c-.2.5-.2 1-.2 1.5m-.1 2.7c0 .3-.3.6-.6.6h-7.5c-.3 0-.6-.3-.6-.6v-.9h8.7v.9zM34 51.7c-1.1 0-2.1-.5-2.5-1.1h5.1c-.5.7-1.5 1.1-2.6 1.1m8.2-14.8c-1.5 1.6-2.7 3.4-3.3 5.5h-9.8c-.6-2-1.7-3.9-3.3-5.5-2.2-2.2-3.4-5.1-3.4-8.1 0-6.4 5.2-11.6 11.6-11.6 6.4 0 11.6 5.2 11.6 11.6-.1 3.1-1.3 5.9-3.4 8.1M33.1 9.4V.9c0-.5.4-.9.9-.9s.9.4.9.9v8.6c0 .5-.4.9-.9.9-.5-.1-.9-.5-.9-1m-14.5 5.3c.3.4.3.9-.1 1.2-.2.1-.4.2-.6.2-.3 0-.5-.1-.7-.3l-5.5-6.6c-.3-.4-.3-.9.1-1.2.4-.3.9-.3 1.2.1l5.6 6.6zM9.2 31L.8 29.5c-.5-.1-.8-.5-.7-1 .1-.5.5-.8 1-.7l8.4 1.5c.5.1.8.5.7 1-.1.4-.5.7-.9.7h-.1m3.9 15.6c.2.4.1 1-.3 1.2l-7.4 4.3c-.1.1-.3.1-.4.1-.3 0-.6-.2-.8-.4-.2-.4-.1-1 .3-1.2l7.4-4.3c.4-.3.9-.2 1.2.3m13.1 11.7l-2.9 8.1c-.1.4-.5.6-.8.6-.1 0-.2 0-.3-.1-.5-.2-.7-.7-.5-1.1l2.9-8.1c.2-.5.7-.7 1.1-.5.5.2.7.7.5 1.1m20.1 7.5c.2.5-.1 1-.5 1.1-.1 0-.2.1-.3.1-.4 0-.7-.2-.8-.6l-2.9-8.1c-.2-.5.1-1 .5-1.1.5-.2 1 .1 1.1.5l2.9 8.1zm17.6-14.1c-.2.3-.5.4-.8.4-.1 0-.3 0-.4-.1l-7.4-4.3c-.4-.2-.6-.8-.3-1.2.2-.4.8-.6 1.2-.3l7.4 4.3c.3.3.5.8.3 1.2m4-23.2c.1.5-.2.9-.7 1L58.8 31h-.2c-.4 0-.8-.3-.9-.7-.1-.5.2-.9.7-1l8.4-1.5c.6-.1 1.1.2 1.1.7M56.3 9.3l-5.5 6.6c-.2.2-.4.3-.7.3-.2 0-.4-.1-.6-.2-.4-.3-.4-.9-.1-1.2l5.5-6.6c.3-.4.9-.4 1.2-.1.4.3.5.8.2 1.2" fill="#000000"/><path d="M33.8 21.6c-3.9 0-7.1 3.2-7.1 7.1S33.8 41 33.8 41s7.1-8.4 7.1-12.3-3.2-7.1-7.1-7.1zm.1 9.8c-1.8 0-3.2-1.4-3.2-3.2 0-1.8 1.4-3.2 3.2-3.2 1.8 0 3.2 1.4 3.2 3.2 0 1.7-1.4 3.2-3.2 3.2z" fill="#000000"/></svg>
