<svg xmlns="http://www.w3.org/2000/svg" viewBox="0 0 56.9 54.5"><path d="M24.2 54.5h-.1c-3.7-.5-7.1-1.6-10.3-3.4-3.1-1.8-5.7-4.1-7.9-6.9-2.2-2.8-3.8-6-4.8-9.4-1-3.5-1.3-7.2-.8-10.9.1-.5.5-.8 1-.8.5.1.8.5.8 1-.6 3.5-.3 6.9.6 10.2.9 3.2 2.4 6.1 4.5 8.8 2.1 2.6 4.5 4.8 7.4 6.5 3 1.7 6.2 2.8 9.7 3.2.5.1.8.5.8 1-.1.3-.5.7-.9.7zM37.6 52.6c-.3 0-.7-.2-.8-.5-.2-.4 0-1 .5-1.2 3.1-1.3 5.8-3.1 8.2-5.5 2.4-2.4 4.2-5.1 5.5-8.2 1.3-3.2 2-6.5 2-10s-.7-6.8-2-10c-.2-.4 0-1 .5-1.2.5-.2 1 0 1.2.5 1.4 3.4 2.2 7 2.2 10.7 0 3.7-.7 7.3-2.2 10.7-1.4 3.3-3.4 6.2-5.9 8.7-2.5 2.5-5.4 4.5-8.7 5.9-.2.1-.4.1-.5.1zM6.1 12.2c-.2 0-.4-.1-.5-.2-.4-.3-.5-.8-.2-1.2 2.2-2.8 4.8-5.2 7.8-7C16.4 1.9 19.8.7 23.5.2s7.3-.2 10.9.8c3.4.9 6.6 2.5 9.4 4.7.4.3.5.8.2 1.2-.3.4-.8.5-1.2.2-2.7-2-5.6-3.5-8.8-4.4-3.4-.9-6.8-1.2-10.3-.7-3.4.5-6.7 1.6-9.6 3.3-2.8 1.7-5.3 3.9-7.3 6.6-.2.2-.5.3-.7.3z" fill="#83af3f"/><path d="M5.3 12.3l-.7-5.8c0-.5.3-.9.8-1 .5-.1.9.3 1 .8l.5 4.1 3.9-.5c.5-.1.9.3 1 .8.1.5-.3.9-.8 1l-5.7.6zM49.8 21.8h-.3c-.5-.1-.7-.6-.6-1.1l1.7-5.4 5.6 1.8c.5.1.7.6.6 1.1-.1.5-.6.7-1.1.6l-3.9-1.3-1.2 3.8c0 .2-.4.5-.8.5z" fill="#83af3f"/><g fill="#83af3f"><path d="M14.7 28.4H19v-.9-.8h-4.3c-1.3 0-2.3-1-2.3-2.3s1-2.3 2.3-2.3h6c.5-.7 1-1.2 1.7-1.8h-7.6c-2.2 0-4 1.8-4 4-.1 2.3 1.7 4.1 3.9 4.1zM12.2 15.7h29.1c1.3 0 2.3 1 2.3 2.3s-1 2.3-2.3 2.3H34c.6.5 1.2 1.1 1.7 1.8h5.5c2.2 0 4-1.8 4-4s-1.8-4-4-4h-29c-.5 0-.9.4-.9.9s.4.7.9.7zM41.2 26.6h-3.8V28.3h3.8c1.3 0 2.3 1 2.3 2.3s-1 2.3-2.3 2.3h-5.6c-.5.7-1.1 1.3-1.7 1.8h7.3c2.2 0 4-1.8 4-4s-1.8-4.1-4-4.1zM44.1 39.3H14.7c-1.3 0-2.3-1-2.3-2.3s1-2.3 2.3-2.3h7.8c-.6-.5-1.2-1.1-1.7-1.8h-6.1c-2.2 0-4 1.8-4 4s1.8 4 4 4H44c.5 0 .9-.4.9-.9s-.4-.7-.8-.7z"/></g><path d="M28.2 37.6c-5.6 0-10.1-4.5-10.1-10.1s4.5-10.1 10.1-10.1 10.1 4.5 10.1 10.1c0 5.5-4.5 10.1-10.1 10.1zm0-18.5c-4.6 0-8.4 3.8-8.4 8.4s3.8 8.4 8.4 8.4c4.6 0 8.4-3.8 8.4-8.4s-3.8-8.4-8.4-8.4z" fill="#83af3f"/><path d="M33.1 26.7c0-.1 0-.1 0 0v-.1l-.1-.1-5 .5 3.4-4.5c0-.1.1-.1 0-.2 0-.1-.1-.1-.2-.1h-2.8c-.1 0-.1 0-.2.1l-4 6.2s0 .1.1.1h.1l4.9-.5-2.8 4-.7-1c0-.1-.1-.1-.2-.1s-.1.1-.1.2v2.5c0 .1 0 .1.1.2h.2l2.4-.7c.1 0 .1-.1.1-.2s-.1-.2-.1-.2l-1.2-.4 6-5.6c0-.1.1-.1.1-.1" fill="#83af3f"/></svg>