<svg xmlns="http://www.w3.org/2000/svg" viewBox="0 0 57.7 61.3"><path d="M56.8 61.3H.9c-.5 0-.9-.4-.9-.9s.4-.9.9-.9h55.9c.5 0 .9.4.9.9s-.4.9-.9.9zM52.3 56.8H5.4c-.5 0-.9-.4-.9-.9s.4-.9.9-.9h46.8c.5 0 .9.4.9.9s-.4.9-.8.9zM9 34.9h3.2v18.2H9zM18.1 34.9h3.2v18.2h-3.2zM27.2 34.9h3.2v18.2h-3.2zM36.2 34.9h3.2v18.2h-3.2zM45.3 34.9h3.2v18.2h-3.2z" fill="#000000"/><path d="M52.6 33.8l-12.3-9.6c-.7.3-1.3.5-2 .6l11.2 8.8H5.9l18.9-14.8s.1 0 .1-.1c0 0 .1 0 .1-.1-.3-.5-.5-1.1-.7-1.7-.2.1-.4.3-.6.5L2.8 33.8c-.3.2-.4.6-.3 1 .1.4.5.6.8.6H52c.4 0 .7-.2.8-.6.2-.3.1-.7-.2-1z" fill="#000000"/><path d="M35.7 26c-7.2 0-13-5.8-13-13s5.8-13 13-13 13 5.8 13 13-5.8 13-13 13zm0-24.2c-6.2 0-11.3 5-11.3 11.3 0 6.2 5 11.3 11.3 11.3S47 19.2 47 13 42 1.8 35.7 1.8z" fill="#000000"/><circle transform="rotate(-61.197 31.79789232 17.86724615)" cx="31.8" cy="17.9" fill="#000000" r="1.6"/><path d="M35.4 18.5c-.2-.1-.3-.3-.3-.5-.1-1-.6-1.9-1.3-2.5-.8-.6-1.7-.9-2.7-.8-.4 0-.8-.3-.9-.7 0-.4.3-.8.7-.9 1.4-.1 2.8.3 3.8 1.2s1.7 2.2 1.9 3.6c0 .4-.3.8-.7.9-.1-.1-.3-.2-.5-.3z" fill="#000000"/><path d="M30.3 11.3c-.2-.1-.3-.3-.3-.6 0-.4.3-.8.7-.9 4.6-.4 8.7 3 9.2 7.6 0 .4-.3.8-.7.9-.4 0-.8-.3-.9-.7-.3-3.8-3.7-6.5-7.4-6.2-.3.1-.5 0-.6-.1z" fill="#000000"/><path d="M30 8.1c-.2-.1-.3-.3-.3-.5 0-.4.3-.8.7-.9 6.4-.6 12 4.1 12.6 10.5 0 .4-.3.8-.7.9-.4 0-.8-.3-.9-.7-.5-5.5-5.4-9.5-10.9-9-.2-.1-.4-.1-.5-.3z" fill="#000000"/></svg>
