<svg viewBox="0 0 33.4 32.9" xmlns="http://www.w3.org/2000/svg"><path d="m31.9 15c-.9-.9-2.2-1.5-3.5-1.5s-2.6.5-3.5 1.5c-.6.6-.9 1.2-1.2 1.9l-3.4-.6c0-.4-.1-.8-.3-1.2l5.3-5.3c.4.2.9.3 1.3.3.7 0 1.5-.3 2-.8 1.1-1.1 1.1-2.9 0-4-.5-.5-1.2-.8-2-.8-.7 0-1.5.3-2 .8-.9.9-1 2.2-.5 3.3l-5.1 5.2c-.4-.4-1-.7-1.6-.8-.7-.2-1.3-.1-1.9.1l-2.3-4.1c.2-.1.4-.3.5-.5 1.9-2 1.9-5.1 0-7.1-.9-.9-2.2-1.4-3.5-1.4s-2.6.5-3.6 1.5c-1.9 2-1.9 5.1 0 7.1 1 .9 2.2 1.4 3.6 1.4.5 0 1-.1 1.5-.3l2.4 4.1c-.4.4-.8.8-1 1.3l-6.8-1.9c0-.5-.3-1.2-.8-1.7s-1.2-.8-2-.8c-.7 0-1.5.3-2 .8-1.1 1.1-1.1 2.9 0 4 .5.5 1.2.8 2 .8.7 0 1.5-.3 2-.8.2-.2.3-.4.5-.6l6.8 1.9c0 .6.1 1.1.4 1.6l-4.3 2.3c-.1-.2-.2-.3-.4-.5-.9-.9-2.2-1.5-3.5-1.5s-2.6.5-3.5 1.5c-1.9 2-1.9 5.1 0 7.1.9.9 2.2 1.5 3.5 1.5s2.6-.5 3.5-1.5c1.4-1.4 1.8-3.4 1.2-5.2l4.5-2.5c.4.3.9.6 1.5.7.4.1.8.1 1.3.1l2 7.3c-.1.1-.3.2-.4.3-1.1 1.1-1.1 2.9 0 4 .5.5 1.2.8 2 .8.7 0 1.5-.3 2-.8 1.1-1.1 1.1-2.9 0-4-.5-.5-1.2-.8-2-.8l-2-7.3c.7-.4 1.3-1.1 1.6-2l3.3.6c0 1.3.5 2.5 1.5 3.5.9.9 2.2 1.5 3.5 1.5s2.6-.5 3.5-1.5c1.9-1.9 1.9-5-.1-7zm-24.1-7.6c-1.3-1.3-1.3-3.5 0-4.8.6-.6 1.5-1 2.4-1s1.7.4 2.4 1c1.3 1.3 1.3 3.5 0 4.8-.6.6-1.5 1-2.4 1s-1.8-.4-2.4-1zm-.4 18.8c-.6.6-1.5 1-2.4 1s-1.7-.4-2.4-1c-1.3-1.3-1.3-3.5 0-4.8.6-.6 1.5-1 2.4-1s1.7.4 2.4 1c1.3 1.3 1.3 3.5 0 4.8zm-3-11.8c-.2.2-.5.4-.8.3-.3 0-.6-.1-.8-.3-.5-.5-.5-1.2 0-1.7.2-.2.5-.4.8-.4s.6.1.8.4c.5.5.5 1.2 0 1.7zm16.9 16.5c-.2.2-.5.4-.8.4s-.6-.1-.8-.3c-.5-.5-.5-1.2 0-1.7.2-.2.5-.4.8-.3.3 0 .6.1.8.3.5.4.5 1.1 0 1.6zm4.5-24.4c.2-.2.5-.4.8-.4s.6.1.8.3c.6.6.6 1.3.1 1.8-.2.2-.5.4-.8.4s-.6-.1-.8-.3c-.5-.6-.5-1.3-.1-1.8zm5 14.4c-.6.6-1.5 1-2.4 1s-1.7-.4-2.4-1c-1.3-1.3-1.3-3.5 0-4.8.6-.6 1.5-1 2.4-1s1.7.4 2.4 1c1.3 1.4 1.3 3.5 0 4.8z" fill="#333332"/></svg>