<svg xmlns="http://www.w3.org/2000/svg" viewBox="0 0 61.2 40.6"><path d="M55.5 40.6c-3.2 0-5.7-2.6-5.7-5.7 0-3.2 2.6-5.7 5.7-5.7 3.2 0 5.7 2.6 5.7 5.7 0 3.2-2.5 5.7-5.7 5.7zm0-9.7c-2.2 0-4 1.8-4 4s1.8 4 4 4 4-1.8 4-4-1.8-4-4-4z" fill="#FFFFFF"/><path d="M25.1 5V1.8c0-1-.8-1.8-1.8-1.8H1.8C.8 0 0 .8 0 1.8V30c0 1 .8 1.8 1.8 1.8H5c.9-1.1 2.1-1.7 3.6-1.8H1.7l.1-28.2h21.5l.1.1-.1 28.2H11.8L9 30c1.5.1 2.8.8 3.6 1.9v-.1h10.7c1 0 1.8-.8 1.8-1.8V6.8C51.3 13.3 54.5 20.4 54 24.2c-.5 3.7-8.1 6.6-21.4 8.3-7.8 1-15.5 1.3-19.1 1.4.1.3.1.6.1.9 0 .3 0 .6-.1.8 9.1-.2 41-1.7 42.2-11.3C57 14.9 40 8.6 25.1 5z" fill="#FFFFFF"/><path d="M8.8 40.6c-3.2 0-5.7-2.6-5.7-5.7 0-3.2 2.6-5.7 5.7-5.7 3.2 0 5.7 2.6 5.7 5.7.1 3.2-2.5 5.7-5.7 5.7zm0-9.7c-2.2 0-4 1.8-4 4s1.8 4 4 4 4-1.8 4-4-1.8-4-4-4zM13.4 18.2H5.9c-.5 0-.9-.4-.9-.9s.4-.9.9-.9h7.5c.5 0 .9.4.9.9s-.4.9-.9.9zM16.4 21.2h-6c-.5 0-.9-.4-.9-.9s.4-.9.9-.9h6c.5 0 .9.4.9.9s-.4.9-.9.9zM17.2 15.1h-6c-.5 0-.9-.4-.9-.9s.4-.9.9-.9h6c.5 0 .9.4.9.9s-.4.9-.9.9zM42.3 36.3c-.2 0-.5-.1-.6-.3l-2.8-3.3c-.3-.3-.2-.8.1-1.1.3-.3.8-.2 1.1.1l2.8 3.3c.3.3.2.8-.1 1.1-.1.1-.3.2-.5.2zM55.5 35.7c-.2 0-.4-.1-.6-.2l-5.6-5.7c-.3-.3-.3-.8 0-1.1.3-.3.8-.3 1.1 0l5.6 5.7c.3.3.3.8 0 1.1-.1.1-.3.2-.5.2zM29.1 21.3s-.1 0 0 0c-.5 0-.9-.4-.9-.9v-7.8c0-.3.1-.5.3-.7.2-.2.5-.2.8-.2 1.4.4 8.3 2.3 8.7 5.6.1.7-.1 1.3-.6 1.8-1.8 2.1-7.5 2.2-8.3 2.2zm.8-7.5v5.7c2.2-.1 5.3-.5 6.2-1.5.2-.2.2-.3.2-.4-.2-1.4-3.6-3-6.4-3.8z" fill="#FFFFFF"/><path d="M43.9 36.8h-3.5c-.4 0-.8-.4-.8-.8s.4-.8.8-.8h3.5c.4 0 .8.4.8.8s-.3.8-.8.8z" fill="#FFFFFF"/></svg>
