<svg xmlns="http://www.w3.org/2000/svg" viewBox="0 0 67.2 38.5"><path d="M33.8 38.5h-.2c-6.7 0-13.3-2.1-20-6.3C9 29.4 4.8 25.8 1.1 21.6c-1.5-1.7-1.5-3.1 0-4.7C7 10.4 13.4 5.7 20.5 2.7c9.3-3.9 18.7-3.6 28.1.8 6.6 3.1 12.4 7.6 17.7 13.6 1.2 1.4 1.2 2.9 0 4.2-6.8 7.5-14 12.5-22.1 15.4-3.5 1.3-7 1.8-10.4 1.8zm-.2-36.7c-4.2 0-8.3.9-12.4 2.6-6.9 2.9-13 7.4-18.8 13.8-.9.9-.8 1.3 0 2.3C6 24.5 10 28 14.5 30.8c6.5 4.1 12.7 6 19.1 6.1 3.4 0 6.7-.5 9.9-1.7 7.9-2.7 14.9-7.6 21.4-14.9.6-.7.6-1.2 0-1.9-5.1-5.9-10.7-10.2-17.1-13.2-4.7-2.3-9.5-3.4-14.2-3.4z" fill="#000000"/><path d="M37.5 31.3H29c-3.1 0-5.7-2.5-5.7-5.7v-2c0-3 2.9-5.7 6.1-5.7v1.8c-2.1 0-4.4 1.7-4.4 3.9v2c0 2.1 1.7 3.9 3.9 3.9h8.6c2.1 0 3.9-1.7 3.9-3.9v-2c0-2.2-2.5-3.9-4.7-3.9V18c3 0 6.4 2.4 6.4 5.7v2c.1 3.1-2.5 5.6-5.6 5.6z" fill="#000000"/><path d="M24.3 26.8h-7.2c-1.7 0-3-1.4-3-3v-1.7c0-1.5 1.5-2.9 3.1-3 .9 1 2 1.7 3.2 1.7 1.2 0 2.4-.7 3.3-1.7.8.1 1.6.4 2.3 1 .5-.4 1-.7 1.6-.9-.7-.8-1.7-1.4-2.7-1.7.7-1.2 1.1-2.6 1.1-3.8 0-3.2-2.5-5.7-5.5-5.7-1.4 0-2.7.6-3.8 1.7-1.1 1.2-1.7 2.7-1.5 4.3.1 1.2.4 2.4 1 3.5-2.2.6-3.8 2.5-3.8 4.6v1.7c0 2.6 2.1 4.8 4.8 4.8h7c.3 0 .7 0 1-.1-.5-.6-.7-1.1-.9-1.7zM18 10.9c.7-.7 1.6-1.2 2.5-1.2 1.8 0 3.8 1.6 3.8 4S22.2 19 20.5 19c-1.8 0-3.4-2.7-3.5-5.1-.1-1.1.2-2.2 1-3zM50.1 17.5c.7-1.2 1.1-2.6 1.1-3.8 0-3.2-2.5-5.7-5.5-5.7-1.4 0-2.7.6-3.8 1.7-1.1 1.2-1.7 2.7-1.5 4.3.1 1.2.4 2.4 1 3.5-1.1.3-2 .9-2.7 1.7.6.2 1.1.5 1.6.9.6-.5 1.3-.9 2.2-1 .9 1 2 1.7 3.2 1.7 1.2 0 2.4-.7 3.3-1.7 1.6.2 3.3 1.4 3.3 3v1.7c0 1.7-1.4 3-3 3h-7-.1c-.1.6-.4 1.2-.8 1.7.3.1.6.1.9.1h7c2.6 0 4.8-2.1 4.8-4.8v-1.7c0-2.2-1.9-4-4-4.6zM45.7 19c-1.8 0-3.4-2.7-3.5-5.1-.1-1.1.3-2.2 1.1-3 .7-.7 1.6-1.2 2.5-1.2 1.8 0 3.8 1.6 3.8 4-.1 2.4-2.2 5.3-3.9 5.3z" fill="#000000"/><path d="M33.1 21.8c-3.4 0-6-4.2-6.2-8.1-.1-1.9.5-3.7 1.8-5.1 1.2-1.3 2.8-2 4.5-2 3.6 0 6.5 3 6.5 6.8s-3.1 8.4-6.6 8.4zm0-13.5c-1.1 0-2.3.5-3.2 1.5-1 1-1.5 2.4-1.4 3.8.2 3 2.2 6.4 4.5 6.4s4.8-3.6 4.8-6.7c.1-3-2.4-5-4.7-5z" fill="#000000"/></svg>
