<svg xmlns="http://www.w3.org/2000/svg" viewBox="0 0 67.5 67.5"><path d="M33.8 67.5C15.1 67.5 0 52.4 0 33.8S15.1 0 33.8 0s33.8 15.1 33.8 33.8-15.2 33.7-33.8 33.7zm0-65.7c-17.6 0-32 14.4-32 32s14.4 32 32 32 32-14.4 32-32c-.1-17.7-14.4-32-32-32z" fill="#7DA02B"/><path fill="#7DA02B" d="M44 48h2v4.2h-2zM47 46.5h2v5.7h-2zM50 44.5h2v7.7h-2zM52.9 42.9h2v9.4h-2zM39.2 53.8H27.7v-8.1h11.5v8.1zm-10.6-.9h9.7v-6.3h-9.7v6.3z"/><path fill="#7DA02B" d="M33.5 50.9l-5.6-4.4.6-.7 5 4 5-4 .6.7z"/><circle cx="17.1" cy="51.8" r="1.1" fill="#7DA02B"/><path d="M19.4 50.5c-.1 0-.3-.1-.4-.2-.5-.5-1.2-.8-1.9-.8s-1.4.3-1.9.8c-.2.2-.6.2-.8 0-.2-.2-.2-.6 0-.8.7-.7 1.7-1.1 2.7-1.1 1 0 2 .4 2.7 1.1.2.2.2.6 0 .8-.1.1-.2.2-.4.2z" fill="#7DA02B"/><path d="M13.2 48.8c-.1 0-.3-.1-.4-.2-.2-.2-.2-.6 0-.8 2.4-2.3 6.2-2.3 8.6.1.2.2.2.6 0 .8-.2.2-.6.2-.8 0-1.9-1.9-5-2-7-.1-.1.1-.2.2-.4.2z" fill="#7DA02B"/><path d="M11.7 47.2c-.1 0-.3-.1-.4-.2-.2-.2-.2-.6 0-.8 3.3-3.2 8.6-3.2 11.8.1.2.2.2.6 0 .8-.2.2-.6.2-.8 0-2.8-2.8-7.4-2.9-10.2-.1-.2.1-.3.2-.4.2z" fill="#7DA02B"/><g fill="#7DA02B"><path d="M23.6 32.5h9.2V20.6h-9.2v11.9zm5.2-9.1h.7v6.1h-1.1v-4.8c-.4.1-.8.2-1.2.2v-1c.7 0 1.2-.2 1.6-.5zM43.1 20.6h-8.7v11.9h8.7V20.6zm-4.3 9c-.6 0-1-.2-1.3-.5-.3-.3-.5-.7-.7-1.2-.1-.5-.2-1-.2-1.5 0-1 .2-1.8.6-2.3.4-.5.9-.7 1.6-.7.6 0 1.2.2 1.6.7.4.5.6 1.3.6 2.4 0 1.1-.2 1.9-.6 2.4s-.9.7-1.6.7z"/><path d="M38.8 24.4c-.4 0-.6.2-.8.5-.2.3-.3.8-.3 1.6 0 1.4.4 2.1 1.1 2.1.3 0 .6-.1.8-.5.2-.3.3-.9.3-1.6 0-.8-.1-1.3-.3-1.6s-.4-.5-.8-.5zM17.5 24.4c-.4 0-.6.2-.8.5-.2.3-.3.8-.3 1.6 0 1.4.4 2.1 1.1 2.1.3 0 .6-.1.8-.5.2-.3.3-.9.3-1.6 0-.8-.1-1.3-.3-1.6s-.4-.5-.8-.5z"/><path d="M22.1 20.6h-7.8c-.8 0-1.4.6-1.4 1.4v9.1c0 .8.6 1.4 1.4 1.4h7.8V20.6zm-4.6 9c-.6 0-1-.2-1.3-.5-.3-.3-.5-.7-.7-1.2-.1-.5-.2-1-.2-1.5 0-1 .2-1.8.6-2.3.4-.5.9-.7 1.6-.7.6 0 1.2.2 1.6.7.4.5.6 1.3.6 2.4 0 1.1-.2 1.9-.6 2.4s-.9.7-1.6.7zM52 20.6h-7.3v11.9H52c.8 0 1.4-.6 1.4-1.4V22c0-.7-.6-1.4-1.4-1.4zm-2.2 8.9h-1.1v-4.8c-.4.1-.8.2-1.2.2v-1c.6 0 1.2-.2 1.6-.4h.7v6z"/></g><path fill="#7DA02B" d="M1.3 39.1h63.6v1.6H1.3z"/></svg>
