<svg xmlns="http://www.w3.org/2000/svg" viewBox="0 0 18.9 18.9"><g fill="#06c"><path d="M18.9 5.6c0-.8-.2-1.6-.4-2.3C17.9 2 16.9 1 15.7.5 15 .2 14.2.1 13.4.1 12.4 0 12 0 9.5 0 6.9 0 6.6 0 5.6.1 4.8.1 4 .2 3.3.5 2 1 1 2 .5 3.3.2 4 .1 4.8.1 5.6 0 6.6 0 6.9 0 9.5c0 2.6 0 2.9.1 3.9 0 .8.2 1.6.4 2.3.5 1.2 1.5 2.2 2.8 2.7.7.3 1.5.4 2.3.4 1 0 1.3.1 3.9.1 2.6 0 2.9 0 3.9-.1.8 0 1.6-.2 2.3-.4 1.3-.5 2.3-1.5 2.8-2.8.3-.7.4-1.5.4-2.3 0-1 .1-1.3.1-3.9-.1-2.5-.1-2.8-.1-3.8zm-1.7 7.7c0 .6-.1 1.2-.3 1.8-.3.8-1 1.5-1.8 1.8-.6.2-1.2.3-1.8.3-1 0-1.3.1-3.8.1s-2.8 0-3.8-.1c-.6 0-1.2-.1-1.8-.3-.8-.3-1.5-1-1.8-1.8-.2-.6-.3-1.2-.3-1.8 0-1-.1-1.3-.1-3.8s0-2.8.1-3.8c0-.6.1-1.2.3-1.8.3-.8 1-1.5 1.8-1.8.6-.2 1.1-.3 1.7-.3h3.8c2.5 0 2.8 0 3.8.1.6 0 1.2.1 1.8.3.8.3 1.5 1 1.8 1.8.2.4.4 1 .4 1.6 0 1 .1 1.3.1 3.8-.1 2.6-.1 2.9-.1 3.9z"/><path d="M9.5 4.8C7 4.8 4.9 6.9 4.9 9.4 4.9 11.9 7 14 9.5 14c2.5 0 4.6-2.1 4.6-4.6 0-2.5-2.1-4.6-4.6-4.6zm0 7.7c-1.7 0-3-1.3-3-3s1.3-3 3-3 3 1.3 3 3c0 1.6-1.4 3-3 3z"/><circle cx="14.4" cy="4.5" r="1.4"/></g></svg>