<svg xmlns="http://www.w3.org/2000/svg" viewBox="0 0 59.2 56.4"><path d="M11.5 37.1c-.3 0-6-.4-9.3-4.3-1.8-2.2-2.5-5-2.1-8.3.4-3.1 1.7-5.6 3.9-7.2 3.1-2.3 7.2-2.3 9-2.2.1-1.4.4-4 1.5-6.6C16 4.9 19.4.5 26.8.1c11-.7 14.6 8.8 15.4 11.9 1.9-.5 6.4-1.4 10.3.7 3 1.6 5.1 4.5 6.2 8.6 2.4 9.3-6.6 14.1-6.7 14.2-.4.2-1 .1-1.2-.4s-.1-1 .4-1.2c.3-.2 7.8-4.2 5.8-12.2-.9-3.6-2.7-6.2-5.3-7.5-4.4-2.3-9.8-.3-9.9-.3-.2.1-.5.1-.7-.1-.2-.1-.4-.4-.4-.6 0 0-.6-3.1-2.6-6.1-2.5-3.8-6.2-5.6-11.1-5.3-5.2.3-8.9 2.8-10.8 7.3-1.5 3.5-1.4 6.9-1.4 6.9 0 .3-.1.5-.3.7-.2.2-.5.3-.7.2-.1 0-5.2-.8-8.7 1.8-1.8 1.3-2.9 3.3-3.2 6-.4 2.8.2 5.2 1.7 6.9 2.8 3.4 8 3.7 8 3.7.5 0 .9.4.8.9-.1.5-.4.9-.9.9z" fill="#83af3f"/><path d="M21.8 38.1c0 .8 0 1.5-.1 2.1-.1.6-.3 1.1-.5 1.6-.3.6-.8 1-1.3 1.3-.5.3-1.1.5-1.7.5-.7 0-1.4-.2-2-.6-.6-.4-1-1-1.3-1.7-.2-.4-.3-.8-.3-1.3-.1-.5-.1-1-.1-1.6 0-.7 0-1.4.1-2 .1-.6.2-1.1.4-1.5.3-.7.7-1.2 1.2-1.6.5-.4 1.2-.5 2-.5.5 0 1 .1 1.4.2.4.2.8.4 1.1.7.3.3.6.7.8 1.2.2.6.3 1.7.3 3.2zm-2-.1c0-.9-.1-1.6-.2-2.2-.1-.6-.3-1-.5-1.3-.3-.3-.6-.4-1-.4-.6 0-1.1.3-1.3 1-.2.6-.4 1.6-.4 3 0 .9.1 1.7.2 2.2.1.6.3 1 .5 1.3.3.3.6.4 1 .4s.8-.2 1-.5c.3-.3.4-.8.5-1.3.2-.6.2-1.3.2-2.2zM23.8 42.2v-8.4c0-.4.1-.8.3-1 .2-.2.5-.3.8-.3.3 0 .6.1.8.3.2.2.3.5.3 1v8.4c0 .4-.1.8-.3 1-.2.2-.5.3-.8.3-.3 0-.6-.1-.8-.3-.2-.2-.3-.6-.3-1zM35.3 38.1c0 .8 0 1.5-.1 2.1-.1.6-.3 1.1-.5 1.6-.3.6-.8 1-1.3 1.3-.5.3-1.1.5-1.7.5-.7 0-1.4-.2-2-.6-.6-.4-1-1-1.3-1.7-.2-.4-.3-.8-.3-1.3-.1-.5-.1-1-.1-1.6 0-.7 0-1.4.1-2 .1-.6.2-1.1.4-1.5.3-.7.7-1.2 1.2-1.6.5-.4 1.2-.5 2-.5.5 0 1 .1 1.4.2.4.2.8.4 1.1.7.3.3.6.7.8 1.2.1.6.3 1.7.3 3.2zm-2-.1c0-.9-.1-1.6-.2-2.2-.1-.6-.3-1-.5-1.3-.3-.3-.6-.4-1-.4-.6 0-1.1.3-1.3 1-.2.6-.4 1.6-.4 3 0 .9.1 1.7.2 2.2.1.6.3 1 .5 1.3s.6.4 1 .4.8-.2 1-.5c.3-.3.4-.8.5-1.3.2-.6.2-1.3.2-2.2zM37.3 42.2v-8.4c0-.4.1-.8.3-1 .2-.2.5-.3.8-.3.3 0 .6.1.8.3.2.2.3.5.3 1v8.4c0 .4-.1.8-.3 1-.2.2-.5.3-.8.3-.3 0-.6-.1-.8-.3-.2-.2-.3-.6-.3-1zM48.9 38.1c0 .8 0 1.5-.1 2.1-.1.6-.3 1.1-.5 1.6-.3.6-.8 1-1.3 1.3-.5.3-1.1.5-1.7.5-.7 0-1.4-.2-2-.6-.6-.4-1-1-1.3-1.7-.2-.4-.3-.8-.3-1.3-.1-.5-.1-1-.1-1.6 0-.7 0-1.4.1-2 .1-.6.2-1.1.4-1.5.3-.7.7-1.2 1.2-1.6.5-.4 1.2-.5 2-.5.5 0 1 .1 1.4.2.4.2.8.4 1.1.7.3.3.6.7.8 1.2.1.6.3 1.7.3 3.2zm-2-.1c0-.9-.1-1.6-.2-2.2-.1-.6-.3-1-.5-1.3-.3-.3-.6-.4-1-.4-.6 0-1.1.3-1.3 1-.2.6-.4 1.6-.4 3 0 .9.1 1.7.2 2.2.1.6.3 1 .5 1.3.3.3.6.4 1 .4s.8-.2 1-.5c.3-.3.4-.8.5-1.3.1-.6.2-1.3.2-2.2z" fill="#83af3f"/><g><path d="M17 55v-8.4c0-.4.1-.8.3-1 .2-.2.5-.3.8-.3.3 0 .6.1.8.3.2.2.3.5.3 1V55c0 .4-.1.8-.3 1-.2.2-.5.3-.8.3-.3 0-.6-.1-.8-.3-.2-.2-.3-.5-.3-1zM23.7 55v-8.4c0-.4.1-.8.3-1 .2-.2.5-.3.8-.3.3 0 .6.1.8.3.2.2.3.5.3 1V55c0 .4-.1.8-.3 1-.2.2-.5.3-.8.3-.3 0-.6-.1-.8-.3s-.3-.5-.3-1zM35.3 50.9c0 .8 0 1.5-.1 2.1-.1.6-.3 1.1-.5 1.6-.3.6-.8 1-1.3 1.3-.5.3-1.1.5-1.7.5-.7 0-1.4-.2-2-.6-.6-.4-1-1-1.3-1.7-.2-.4-.3-.8-.3-1.3-.1-.5-.1-1-.1-1.6 0-.7 0-1.4.1-2 .1-.6.2-1.1.4-1.5.3-.7.7-1.2 1.2-1.6.5-.4 1.2-.5 2-.5.5 0 1 .1 1.4.2.4.2.8.4 1.1.7.3.3.6.7.8 1.2.1.6.3 1.8.3 3.2zm-2-.1c0-.9-.1-1.6-.2-2.2-.1-.6-.3-1-.5-1.3-.3-.3-.6-.4-1-.4-.6 0-1.1.3-1.3 1-.2.6-.4 1.6-.4 3 0 .9.1 1.7.2 2.2.1.6.3 1 .5 1.3s.6.4 1 .4.8-.2 1-.5c.3-.3.4-.8.5-1.3.2-.5.2-1.3.2-2.2zM37.3 55v-8.4c0-.4.1-.8.3-1 .2-.2.5-.3.8-.3.3 0 .6.1.8.3.2.2.3.5.3 1V55c0 .4-.1.8-.3 1-.2.2-.5.3-.8.3-.3 0-.6-.1-.8-.3-.2-.2-.3-.5-.3-1zM43.8 55v-8.4c0-.4.1-.8.3-1 .2-.2.5-.3.8-.3.3 0 .6.1.8.3.2.2.3.5.3 1V55c0 .4-.1.8-.3 1-.2.2-.5.3-.8.3-.3 0-.6-.1-.8-.3-.2-.2-.3-.5-.3-1z" fill="#83af3f"/></g></svg>