<svg xmlns="http://www.w3.org/2000/svg" viewBox="0 0 245.1 32"><g fill="#839e14"><path d="M7.62 8.986v2.2c-.8-.2-1.7-.2-2.5-.2-.6 0-1.3.1-1.9.3-.4.1-.7.5-.7 1s.3 1 .8 1.3c.5.4 1.1.7 1.7.9.3.1.6.2.9.4.6.2 1.2.5 1.8.9.6.4 1.1 1.1 1.4 1.8.1.4.2.8.2 1.2 0 1.3-.8 2.5-1.9 3.1-1.2.7-2.5 1-3.9 1-1 0-2.1-.2-3.1-.6v-2.3c.5.2 1 .3 1.5.4.6.1 1.2.2 1.8.2.8 0 1.6-.2 2.3-.5.5-.2.8-.7.9-1.3 0-.5-.3-1-.7-1.3-.5-.4-1.1-.7-1.6-.9-.3-.1-.6-.2-.9-.4-.6-.2-1.2-.5-1.7-.9-.6-.4-1.1-1-1.4-1.8-.2-.4-.2-.8-.2-1.2 0-1.2.6-2.3 1.6-2.8 1.1-.6 2.3-.9 3.5-.8.5 0 1.3.1 2.1.3zM20.12 22.486v-8.5l-2.2 4.2h-2.3l-2.2-4.2v8.5h-2.4v-13.7h2.3l3.4 6.3 3.4-6.3h2.4v13.7h-2.4zM28.92 8.686h2.8l4.8 13.9h-2.6l-1-2.8h-5.3l-1 2.8h-2.6l4.9-13.9zm3.3 8.7l-1.8-5.4-1.9 5.4h3.7zM38.22 8.886h3.9c.9 0 1.9.1 2.8.4.9.3 1.7.8 2.3 1.5.7.9 1 1.9 1 3 0 .8-.2 1.7-.7 2.4-.4.6-1 1.1-1.7 1.5.4.7.9 1.4 1.5 2 .6.6 1.2 1.1 2 1.4v.1l-1 1.5c-.7 0-1.4-.3-2-.8-.7-.5-1.2-1.1-1.7-1.7-.4-.6-.8-1.2-1-1.9-.5.1-.9.1-1.4.1h-1.5v4.1h-2.4v-13.6zm2.4 7.2h1.5c1 .1 2-.1 2.9-.7.5-.4.8-1.1.8-1.7.1-.7-.2-1.4-.8-1.8-.9-.5-1.9-.8-2.9-.7h-1.5v4.9zM60.72 8.886v2.3h-4.2v11.3h-2.4v-11.3h-4.2v-2.3h10.8zM76.82 8.886v1.5h-6.8v4.5h6.8v1.6h-6.8v6h-1.6v-13.7h8.4zM80.52 8.886v12.2h6.4v1.5h-8v-13.7h1.6zM90.52 19.286l-1.1 3.2h-1.7l4.7-13.7h2.1l4.7 13.7h-1.7l-1.1-3.2h-5.9zm5.5-1.4l-2.5-7.3-2.5 7.3h5zM102.82 22.486h-1.6v-13.7h1.7l6.6 10.6v-10.6h1.6v13.7h-1.6l-6.7-10.7v10.7zM114.32 8.886h3.9c1.9 0 3.7.7 5.1 1.9 1.3 1.3 2.1 3.1 2.1 4.9 0 1.8-.7 3.6-2 4.9-1.3 1.3-3.1 2-5 1.9h-4v-13.6zm1.6 12.1h2.4c1.4.1 2.9-.5 3.9-1.5s1.5-2.3 1.4-3.7c0-1.5-.6-2.9-1.6-4-1-1-2.4-1.5-3.9-1.5h-2.3l.1 10.7zM136.02 8.886v1.5h-6.7v4.6h6.6v1.5h-6.6v4.6h6.6v1.5h-8.2v-13.7h8.3zM138.22 8.886h3.3c2.3 0 3.8.4 4.8 1.1 1 .8 1.5 2.1 1.3 3.4 0 .9-.2 1.8-.6 2.5-.4.6-1 1.2-1.7 1.5.2.5.5 1 .8 1.5.4.6.8 1.1 1.3 1.6.4.4.9.8 1.4 1l-.9 1.3c-.6-.2-1.2-.6-1.6-1.1-.6-.6-1.1-1.3-1.5-2-.4-.6-.7-1.2-1-1.9-1 .2-2 .3-3 .2h-1v4.5h-1.6v-13.6zm1.6 7.7h1.4c1.2.1 2.4-.2 3.6-.7.9-.5 1.4-1.4 1.3-2.4.1-1-.4-2-1.3-2.5-1.1-.5-2.2-.7-3.4-.6h-1.6v6.2zM150.22 20.686c1 .4 2 .6 3 .6 1.6 0 3.1-.6 3.1-2.3 0-.8-.5-1.6-1.2-1.9-.7-.4-3.3-1.6-3.8-2.1-.8-.7-1.2-1.6-1.1-2.6 0-2.6 1.8-3.7 4.2-3.7.8 0 1.6.1 2.4.4v1.4c-.8-.2-1.6-.3-2.4-.3-1.5 0-2.8.5-2.8 2.1 0 .5.2 1 .6 1.4.7.6 2.8 1.5 3.8 2.2 1.1.8 1.7 1.3 1.7 2.9 0 2.7-2.3 4.1-4.9 4.1-1 0-1.9-.2-2.8-.6l.2-1.6z"/><g><path d="M198.32 15.586h-1.4l-2.3-6.8h1.3l1.8 5.2 1.8-5.2h1.3l-2.5 6.8zM202.52 8.186h.2v7.3h-1.2v-7.2l1-.1zM208.52 14.586l-.5 1c-.5 0-.9-.2-1.2-.6-.2.2-.4.3-.6.4-.3.1-.5.2-.8.2-.4 0-.8-.1-1.1-.3-.4-.3-.6-.8-.6-1.4 0-.4.1-.8.4-1.1.4-.3.9-.4 1.4-.4h1.1v-.3c0-.3-.1-.6-.3-.8-.2-.2-.5-.2-.7-.2-.5 0-1 .1-1.4.4l-.3-1c.6-.3 1.3-.4 1.9-.4.5 0 1 .1 1.4.4.4.3.6.8.6 1.3v2c0 .2.1.4.2.5.1.2.3.3.5.3zm-2-.9v-.3c-.4 0-.9 0-1.3.1-.3 0-.5.3-.5.5 0 .4.3.7.6.7h.1c.2 0 .4-.1.6-.2.4-.2.5-.5.5-.8zM213.72 14.586l-.5 1c-.5 0-.9-.2-1.2-.6-.2.2-.4.3-.6.4-.3.1-.5.2-.8.2-.4 0-.8-.1-1.1-.3-.4-.3-.6-.8-.6-1.4 0-.4.1-.8.4-1.1.4-.3.9-.4 1.4-.4h1.1v-.3c0-.3-.1-.6-.3-.8-.2-.2-.5-.2-.7-.2-.5 0-1 .1-1.4.4l-.3-1c.6-.3 1.3-.4 1.9-.4.5 0 1 .1 1.4.4.4.3.6.8.6 1.3v2c0 .2.1.4.2.5.1.2.3.3.5.3zm-2-.9v-.3c-.4 0-.9 0-1.3.1-.3 0-.5.3-.5.5 0 .4.3.7.6.7h.1c.2 0 .4-.1.6-.2.4-.2.6-.5.5-.8zM215.42 10.286l.1.4c.5-.3 1.1-.5 1.7-.5.5 0 1 .1 1.3.4.4.4.6.9.6 1.4v3.5h-1.2v-3.1c0-.3-.1-.6-.4-.8-.2-.2-.5-.3-.8-.2-.4 0-.8.1-1.1.3v3.9h-1.2v-5.3h1zM223.92 15.486l-.2-.4c-.4.3-.9.5-1.4.5-.7 0-1.3-.3-1.7-.8-.4-.5-.6-1.1-.6-1.7 0-.8.2-1.6.8-2.2.5-.5 1.3-.8 2-.7.3 0 .5 0 .8.1v-1.9l1-.1h.2v7.3l-.9-.1zm-.3-1.3v-2.8c-.3-.1-.6-.1-.8-.1-.4 0-.8.1-1.1.4-.3.3-.4.8-.4 1.2 0 .4.1.8.3 1.1.2.3.6.5.9.5.4 0 .8-.1 1.1-.3zM230.02 14.186v1.2c-.5.2-1 .3-1.5.3-.7 0-1.4-.2-1.9-.7-.6-.5-.8-1.3-.8-2.1 0-.7.2-1.5.7-2 .4-.4 1-.7 1.6-.7.3 0 .5 0 .8.1.4.1.7.4.9.7.3.5.5 1 .4 1.6v.8h-3.2c.1.4.3.7.6.9.3.2.6.3 1 .3.4-.1.9-.2 1.4-.4zm-3-1.8h2.1c0-.3-.1-.6-.3-.8-.2-.2-.4-.3-.6-.3-.3 0-.5.1-.7.3-.3.2-.4.5-.5.8zM234.72 10.386l-.4 1.2c-.3-.2-.6-.3-.9-.3-.4 0-.8.1-1.1.4v3.8h-1.2v-5.3h1l.1.4c.4-.3.8-.5 1.3-.5h.5c.3.1.5.2.7.3zM239.22 14.186v1.2c-.5.2-1 .3-1.5.3-.7 0-1.4-.2-1.9-.7-.6-.5-.8-1.3-.8-2.1 0-.7.2-1.5.7-2 .4-.4 1-.7 1.6-.7.3 0 .5 0 .8.1.4.1.7.4.9.7.3.5.5 1 .4 1.6v.8h-3.1c.1.4.3.7.6.9.3.2.6.3 1 .3.4-.1.8-.2 1.3-.4zm-3-1.8h2.1c0-.3-.1-.6-.3-.8-.2-.2-.4-.3-.6-.3-.3 0-.5.1-.7.3-.2.2-.4.5-.5.8zM241.42 10.286l.1.4c.5-.3 1.1-.5 1.7-.5.5 0 1 .1 1.3.4.4.4.6.9.6 1.4v3.5h-1.2v-3.1c0-.3-.1-.6-.4-.8-.2-.2-.5-.3-.8-.2-.4 0-.8.1-1.1.3v3.9h-1.2v-5.3h1zM196.42 18.686c0-.2.1-.3.3-.3.2 0 .3.1.3.3 0 .2-.1.3-.3.3-.2 0-.3-.1-.3-.3zm.5.8v2.9h-.4v-2.9h.4zM197.72 21.986c.2.1.5.1.7.1.3 0 .7-.1.7-.5 0-.1-.1-.3-.2-.3-.2-.1-.5-.2-.7-.3-.3-.1-.5-.4-.4-.7 0-.6.5-.8 1-.8.2 0 .4 0 .6.1v.4c-.2-.1-.4-.1-.6-.1-.3 0-.5.1-.5.3 0 .2.1.3.2.4.2.1.5.2.8.4.3.1.4.4.4.6 0 .3-.1.6-.4.7-.2.2-.5.2-.8.2-.2 0-.5 0-.7-.1l-.1-.4zM201.72 21.986c.2.1.5.1.7.1.3 0 .7-.1.7-.5 0-.1-.1-.3-.2-.3-.2-.1-.5-.2-.7-.3-.3-.1-.5-.4-.4-.7 0-.6.5-.8 1-.8.2 0 .4 0 .6.1v.4c-.2-.1-.4-.1-.6-.1-.3 0-.5.1-.5.3 0 .2.1.3.2.4.2.1.5.2.8.4.3.1.4.4.4.6 0 .3-.1.6-.4.7-.2.2-.5.2-.8.2-.2 0-.5 0-.7-.1l-.1-.4zM204.22 19.486v-.5l.4-.1v.6h.8v.4h-.8v1.4c0 .2 0 .4.2.6.1.1.2.2.4.2s.4-.1.5-.2l.1.4c-.2.1-.5.2-.7.2-.2 0-.5-.1-.6-.3-.2-.2-.3-.6-.3-.9v-1.4h-.3v-.4h.3zM208.32 21.086h-1.8c0 .5.4 1 .9 1 .3 0 .5-.1.8-.2v.4c-.3.1-.5.2-.8.2-.8 0-1.4-.6-1.4-1.6 0-.8.4-1.5 1.3-1.5.7 0 1 .6 1 1.2v.5zm-1.8-.4h1.4c0-.5-.1-.8-.6-.8s-.7.3-.8.8zM209.32 19.486l.1.3c.2-.2.4-.4.7-.4h.2c.1 0 .2 0 .2.1l-.2.4c-.1-.1-.3-.1-.4-.1-.3 0-.5.2-.6.4v2.2h-.4v-2.9h.4zM213.32 22.086l-.2.4c-.2 0-.4-.1-.5-.2-.2-.1-.4-.3-.5-.5-.1-.2-.3-.3-.4-.5 0-.1-.1-.1-.1-.2 0 0 0-.1-.1-.1v1.5h-.4v-4l.4-.1v2.5l1.2-1.4h.6l-1.2 1.4c.1.1.1.3.2.4l.5.5c.2.2.3.3.5.3zM215.72 21.086h-1.8c0 .5.4 1 .9 1 .3 0 .5-.1.8-.2v.4c-.3.1-.5.2-.8.2-.8 0-1.4-.6-1.4-1.6 0-.8.4-1.5 1.3-1.5.8 0 1 .6 1 1.2v.5zm-1.8-.4h1.4c0-.5-.1-.8-.6-.8s-.7.3-.8.8zM217.92 21.986c.2.1.5.1.7.1.3 0 .7-.1.7-.5 0-.1-.1-.3-.2-.3-.2-.1-.5-.2-.7-.3-.3-.1-.5-.4-.4-.7 0-.6.5-.8 1-.8.2 0 .4 0 .6.1v.4c-.2-.1-.4-.1-.6-.1-.3 0-.5.1-.5.3 0 .2.1.3.2.4.2.1.5.2.8.4.3.1.4.4.4.6 0 .3-.1.6-.4.7-.2.2-.5.2-.8.2-.2 0-.5 0-.7-.1l-.1-.4zM220.42 19.486v-.5l.4-.1v.6h.8v.4h-.8v1.4c0 .2 0 .4.2.6.1.1.2.2.4.2s.4-.1.5-.2l.1.4c-.2.1-.5.2-.7.2-.2 0-.5-.1-.6-.3-.2-.2-.3-.6-.3-.9v-1.4h-.3v-.4h.3zM224.52 21.086h-1.8c0 .5.4 1 .9 1 .3 0 .5-.1.8-.2v.4c-.3.1-.5.2-.8.2-.8 0-1.4-.6-1.4-1.6 0-.8.4-1.5 1.3-1.5.8 0 1 .6 1 1.2v.5zm-1.8-.4h1.4c0-.5-.1-.8-.6-.8s-.7.3-.8.8zM227.12 22.486l-.1-.3c-.2.2-.5.3-.8.3-.4 0-.7-.2-.9-.5-.2-.3-.4-.7-.3-1.1 0-.4.1-.8.4-1 .3-.3.7-.5 1.1-.4.2 0 .4 0 .5.1v-1.1l.4-.1v4.1h-.3zm-.1-.7v-1.8c-.2-.1-.4-.1-.6-.1-.3 0-.5.1-.7.3-.2.2-.3.5-.3.8 0 .3.1.5.2.8.2.2.4.4.7.3.3 0 .5-.1.7-.3zM230.32 21.086h-1.8c0 .5.4 1 .9 1 .3 0 .5-.1.8-.2v.4c-.3.1-.5.2-.8.2-.8 0-1.4-.6-1.4-1.6 0-.8.4-1.5 1.3-1.5.7 0 1 .6 1 1.2v.5zm-1.8-.4h1.4c0-.5-.1-.8-.6-.8s-.7.3-.8.8zM231.32 19.486l.1.3c.1-.1.3-.2.4-.2.1-.1.3-.1.5-.1.3 0 .5.1.7.2.2.2.3.5.3.9v1.9h-.4v-1.8c0-.2 0-.4-.2-.6-.1-.1-.3-.2-.5-.2-.1 0-.3 0-.4.1-.1.1-.2.1-.4.2v2.3h-.4v-2.9h.3zM183.6828.0129l.18936-.06438 10.84803 31.90716-.18936.06438z"/><g><path d="M183.92 15.886c-.8-.6-1.1 0-1.6 0-.4 0-.8-.7-1.1-.5-.6.3.2 1.4.6 1.6.3.2.6.3.9.4.5.2.7.6.8 1.1.1 1-.7 1.9-1.7 2-.4 0-.9-.1-1.2-.3-.5-.3-.9-.8-1-1.4-.3-1.3-1.2-2.2-1.5-3.4-.2-.7-.3-1.5-.5-2.3-.2-.8-.4-1.6-.6-2.3-.2-.8-.4-1.5-.7-2.2-.9-2.4-1.3-2.2-1.3-2.2.7 2.1 1.2 4.3 1.6 6.6.2 1.2.5 2.5.8 3.7.1.3.3 1 .5 1.2.4.8 1.4 2.1 1.5 3.3 0 .7.1 1.2.1 1.7 0 .3.1.7.2 1 .2.7 2.3 3 4.4 3v-1.7c-1.5 0-2.9-.5-4.2-1.3 0-.4.1-.8.3-1.2.2-.8.9-1.3 1.7-1.4.7 0 1.5.1 2.2.2l-.2-5.6zM174.62 9.686c-.1 1.3-2.1 3.1-2.7 4.2-.3.7-.6 1.3-.8 2.1-.2 1.1-.1 2.3.4 3.4.7 1.6-.1 2.2.4 1.8.6-.5.5-1.7.5-2.5-.1-.7-.1-1.4 0-2 .3-1.4.9-2.7 1.7-3.9.7-.9.9-2.1.5-3.1M175.02 13.386s.2 1-.7 3.6c-2.4 6.9 2.1 7.5 3.4 9.1 0 0 .5-.7-1.5-2.9-.7-.8-1.4-2.6-.8-5.2.8-3.7-.4-4.6-.4-4.6M170.62 8.886c-.1-.4-.1-.7-.1-1.1.2-1.1.9-2.1 1.9-2.5 0 0 .7-.4.7-.9.4 1 0 2.1-.9 2.7-.7.4-1.3 1-1.6 1.8M174.32 7.286c.1.2.7 1.1-1.8 3.1s-1.7 3.5-1.7 3.5-2.7-1.5.4-4 2.4-3.1 2.4-3.1c.3 0 .5.2.7.5M177.52 8.086c.4.1.7 1.4 1.7 1.7.7.2 1.5.1 1.7.5-.3.2-.1.8.3.7.2-.8.4-3.8-3.7-2.9zm1.3.6c0-.1.1 0 .2-.1s.2-.3.4-.4h.4c.1 0 0 .2 0 .3-.1.1-.5-.1-.5.2 0 .5.7 0 1 0 .2 1.3-1.8 1-1.5 0z"/></g></g></g></svg>