<svg xmlns="http://www.w3.org/2000/svg" viewBox="0 0 200 230.4"><path fill="#f4f3f0" d="M.045 148.153h200v82.3h-200z"/><path fill="#839e14" d="M0 0h200v147.4H0z"/><g fill="#fff"><path d="M35.32 63.187l-.1 3.7c-1.4-.2-2.9-.4-4.3-.4-1.1 0-2.2.1-3.3.5-.7.2-1.2.9-1.2 1.6.1.9.6 1.7 1.3 2.1.9.6 1.9 1.1 2.9 1.5.5.3 1 .5 1.5.7 1.1.4 2.1.9 3 1.5 1.1.7 1.9 1.8 2.4 3 .2.6.4 1.3.4 2-.1 2.2-1.3 4.2-3.3 5.2-2.1 1.2-4.4 1.7-6.8 1.7-1.8 0-3.6-.3-5.3-1v-3.8h.1c.8.3 1.7.5 2.5.7 1 .2 2 .3 3 .3 1.4 0 2.7-.3 3.9-.9.8-.4 1.4-1.2 1.5-2.1-.1-.9-.5-1.7-1.3-2.1-.9-.6-1.8-1.1-2.8-1.5l-1.5-.6c-1.1-.4-2.1-.9-3-1.5-1.1-.7-2-1.7-2.5-2.9-1-2.6 0-5.5 2.5-6.8 1.9-1 4-1.5 6.1-1.4 1.4 0 2.9.2 4.3.5zM56.82 85.987v-14.2l-3.8 7h-4l-3.8-7v14.2h-4.2v-23h4.2l5.8 10.7 5.8-10.7h4.2v23h-4.2zM72.12 62.687h4.9l8.3 23.3h-4.4l-1.8-4.7h-9.2l-1.7 4.8h-4.4l8.3-23.4zm5.6 14.6l-3.2-9-3.2 9h6.4zM88.12 62.987h6.8c1.6 0 3.3.2 4.8.7 1.6.4 3 1.3 4 2.5 1.2 1.4 1.8 3.2 1.7 5.1 0 1.4-.4 2.8-1.1 4-.7 1.1-1.7 1.9-2.9 2.5.6 1.2 1.5 2.4 2.5 3.3 1 1 2.1 1.8 3.4 2.3v.3l-1.9 2.7c-1.3-.1-2.5-.5-3.5-1.3-2.1-1.5-3.8-3.6-4.7-6.1-.8.1-1.6.2-2.4.1h-2.6v6.9h-4.1v-23zm4.2 12.2h2.6c2.4 0 4-.4 5-1.1.9-.7 1.4-1.8 1.3-2.9.1-1.2-.4-2.3-1.3-3.1-1-.8-2.5-1.2-5-1.2h-2.6v8.3zM126.92 62.987v3.9h-7.2v19.1h-4.2v-19h-7.2v-4h18.6z"/></g><g fill="#fff"><path d="M39.687 95.168v2.5h-11.6v7.6h11.7v2.7h-11.7v10.1h-2.8v-23h14.4zM46.087 95.168v20.5h11.1v2.5h-13.9v-23h2.8zM63.287 112.868l-1.9 5.4h-2.9l8.1-23h3.7l8.1 23h-2.9l-1.8-5.4h-10.4zm9.5-2.5l-4.3-12.3-4.3 12.2h8.6zM84.587 118.168h-2.8v-23h2.9l11.4 17.8v-17.7h2.8v23h-2.8l-11.5-18v17.9zM104.387 95.168h6.7c3.2-.1 6.3 1.1 8.7 3.2 2.3 2.1 3.6 5.1 3.5 8.2.1 3.1-1.2 6.1-3.4 8.2-2.3 2.2-5.4 3.3-8.6 3.3h-7l.1-22.9zm2.8 20.5h4.2c2.5.1 4.9-.8 6.8-2.4a9.1 9.1 0 002.5-6.3c0-2.5-1-4.9-2.8-6.7-1.8-1.7-4.2-2.6-6.7-2.6h-3.9v18zM141.787 95.168v2.5h-11.4v7.7h11.4v2.5h-11.4v7.7h11.4v2.5h-14.2v-23h14.2zM145.587 95.168h5.8c3.9 0 6.6.6 8.2 1.8 1.6 1.3 2.3 3.1 2.3 5.7.1 1.5-.3 3-1.1 4.3-.7 1.1-1.7 2-2.9 2.5.4.9.9 1.8 1.4 2.5.6 1 1.4 1.8 2.2 2.6.7.7 1.5 1.3 2.4 1.7l-1.5 2.2c-1.1-.3-2.1-1-2.8-1.8-1-1-1.8-2.1-2.6-3.3-.7-1-1.3-2-1.8-3.1-1.7.3-3.4.4-5.1.4h-1.7v7.5h-2.8v-23zm2.8 13h2.4c2.1.1 4.2-.3 6.1-1.1 1.5-.8 2.4-2.4 2.3-4.1.2-1.7-.7-3.3-2.2-4.2-1.8-.8-3.8-1.2-5.8-1h-2.8v10.4zM166.387 115.068c1.7.6 3.5.9 5.2.9 2.7 0 5.4-1 5.4-3.8 0-1.4-.8-2.7-2.1-3.3-1.1-.7-5.6-2.8-6.6-3.5-1.3-1.1-2-2.7-1.9-4.4 0-4.3 3.2-6.2 7.3-6.2 1.4 0 2.8.2 4.2.6v2.3h-.1c-1.3-.3-2.7-.4-4.1-.5-2.6 0-4.8.8-4.8 3.5-.1.9.3 1.8 1 2.3 1.2 1 4.8 2.5 6.6 3.7 1.9 1.3 3 2.2 3 4.8 0 4.6-3.9 6.9-8.4 6.9-1.7 0-3.3-.3-4.8-1l.1-2.3z"/></g><g fill="#839e14"><path d="M79.243 186.428h-3l-5-14.2h2.7l3.8 10.8 3.8-10.8h2.7l-5 14.2zM88.243 170.828h.3v15.3h-2.5v-15.1l2.2-.2zM101.043 184.328l-1.2 2.1c-1 0-1.9-.4-2.5-1.2-.4.3-.8.6-1.3.8-.5.2-1.1.4-1.7.3-.9 0-1.7-.2-2.4-.7-.9-.7-1.4-1.7-1.3-2.9-.1-.8.2-1.7.8-2.3.9-.6 2-.9 3.1-.8.6 0 1.3 0 2.3.1v-.4c0-.6-.2-1.2-.7-1.6-.5-.3-1-.5-1.6-.4-1 0-2.1.3-3 .8l-.6-2.2c1.3-.6 2.7-.9 4.1-.9 1 0 2.1.2 2.9.8.9.7 1.3 1.7 1.3 2.8v4.1c0 .4.2.9.5 1.1.5.2.9.4 1.3.5zm-4.2-1.9v-.7c-.9 0-1.8 0-2.7.1-.6.1-1 .5-1 1.1 0 .8.6 1.4 1.4 1.4h.2c.5 0 .9-.1 1.3-.3.6-.4.9-1 .8-1.6zM112.243 184.328l-1.2 2.1c-1 0-1.9-.4-2.5-1.2-.4.3-.8.6-1.3.8-.5.2-1.1.4-1.7.3-.9 0-1.7-.2-2.4-.7-.9-.7-1.4-1.7-1.3-2.9-.1-.8.2-1.7.8-2.3.9-.6 2-.9 3.1-.8.6 0 1.3 0 2.3.1v-.4c0-.6-.2-1.2-.7-1.6-.5-.3-1-.5-1.6-.4-1 0-2.1.3-3 .8l-.5-2.2c1.3-.6 2.7-.9 4.1-.9 1 0 2.1.2 2.9.8.9.7 1.3 1.7 1.3 2.8v4.1c0 .4.2.9.5 1.1.4.2.8.4 1.2.5zm-4.2-1.9v-.7c-.9 0-1.8 0-2.7.1-.6.1-1 .5-1 1.1 0 .8.6 1.4 1.4 1.4h.2c.5 0 .9-.1 1.3-.3.6-.4.9-1 .8-1.6zM115.943 175.128l.3.9c1.1-.7 2.3-1.1 3.6-1.1 1 0 2 .3 2.9.9.8.8 1.3 1.9 1.2 3v7.3h-2.5v-6.5c0-.7-.2-1.3-.8-1.7-.5-.4-1.1-.5-1.8-.5-.9 0-1.7.2-2.5.7v8.1h-2.5v-11l2.1-.1zM134.143 186.128l-.5-.8c-.9.7-1.9 1-3 1-1.4.1-2.7-.5-3.6-1.6-.8-1-1.2-2.3-1.2-3.6-.1-1.7.5-3.4 1.7-4.7 1.2-1 2.7-1.6 4.3-1.5.6 0 1.1 0 1.7.1v-4l2.1-.2h.4v15.3h-1.9zm-.6-2.8v-5.8c-.6-.1-1.2-.2-1.8-.2-.9 0-1.7.3-2.3.8-.6.7-1 1.6-.9 2.6 0 .8.2 1.6.7 2.3.5.7 1.2 1.1 2 1 .8-.1 1.6-.3 2.3-.7zM147.143 183.328v2.4c-1 .4-2.1.7-3.2.7-1.5 0-2.9-.5-4.1-1.4-1.2-1.1-1.8-2.7-1.7-4.3-.1-1.6.5-3.1 1.6-4.2.9-.9 2.2-1.5 3.5-1.5.6 0 1.1.1 1.7.3.8.3 1.4.7 1.9 1.4.7 1 1 2.2.9 3.3v1.7h-6.9c.2.8.6 1.5 1.3 1.9.6.4 1.3.6 2.1.5 1-.1 2-.4 2.9-.8zm-6.3-3.7h4.6c0-.7-.3-1.3-.7-1.8-.4-.3-.9-.5-1.4-.5-.5 0-1.1.2-1.5.5-.5.5-.9 1.1-1 1.8zM157.343 175.428l-.8 2.5c-.6-.4-1.2-.5-1.9-.6-.8 0-1.6.3-2.3.8v8h-2.5v-11h2.2l.3.9c.8-.7 1.8-1.1 2.9-1.1.4 0 .8 0 1.1.1.2.1.6.2 1 .4zM166.943 183.328v2.4c-1 .4-2.1.7-3.2.7-1.5 0-2.9-.5-4.1-1.4-1.2-1.1-1.8-2.7-1.7-4.3-.1-1.6.5-3.1 1.6-4.2.9-.9 2.2-1.5 3.5-1.5.6 0 1.1.1 1.7.3.8.3 1.4.7 1.9 1.4.7 1 1 2.2.9 3.3v1.7h-6.9c.2.8.6 1.5 1.3 1.9.6.4 1.3.6 2.1.5 1-.1 2-.4 2.9-.8zm-6.3-3.7h4.6c0-.7-.3-1.3-.7-1.8-.4-.3-.9-.5-1.4-.5-.5 0-1.1.2-1.5.5-.5.5-.9 1.1-1 1.8zM171.743 175.128l.3.9c1.1-.7 2.3-1.1 3.6-1.1 1 0 2 .3 2.9.9.8.8 1.3 1.9 1.2 3v7.3h-2.5v-6.5c0-.7-.2-1.3-.8-1.8-.5-.4-1.2-.5-1.8-.5-.9 0-1.7.2-2.5.7v8.1h-2.5v-11h2.1zM75.143 192.828c0-.4.3-.7.7-.7s.7.3.7.7c0 .4-.3.6-.7.6-.4 0-.6-.2-.7-.6zm1.2 1.7v6.1h-1v-6.1h1zM77.943 199.628c.5.2 1 .3 1.5.3.7 0 1.6-.3 1.6-1 0-.3-.2-.6-.5-.7-.4-.2-1-.4-1.6-.7-.6-.3-1-.8-1-1.5 0-1.2 1-1.6 2.1-1.6.4 0 .9.1 1.3.2v.8c-.5-.1-.9-.2-1.4-.2-.6 0-1.1.2-1.1.7 0 .3.2.6.5.7.4.3 1.1.5 1.7.8.5.2.9.8.8 1.3 0 .6-.3 1.2-.8 1.5-.5.3-1.1.5-1.8.5-.5 0-1-.1-1.4-.3l.1-.8zM86.543 199.628c.5.2 1 .3 1.5.3.7 0 1.6-.3 1.6-1 0-.3-.2-.6-.5-.7-.4-.2-1-.4-1.6-.7-.6-.3-1-.8-1-1.5 0-1.2 1-1.6 2.1-1.6.4 0 .9.1 1.3.2v.8c-.5-.1-.9-.2-1.4-.2-.6 0-1.1.2-1.1.7 0 .3.2.6.5.7.4.3 1.1.5 1.7.8.5.2.9.8.8 1.3 0 .6-.3 1.2-.8 1.5-.5.3-1.1.5-1.8.5-.5 0-1-.1-1.4-.3l.1-.8zM91.943 194.528v-1.1l.9-.2h.1v1.3h1.7v.8h-1.7v3c0 .4.1.8.3 1.2.2.2.5.4.8.4.4 0 .8-.1 1.2-.4l.3.8c-.5.2-1 .4-1.5.4s-1-.2-1.4-.5c-.4-.5-.6-1.2-.6-1.8v-3h-.8v-.8l.7-.1zM100.843 197.828h-3.9c0 1.1.8 2.1 2 2.1h.1c.6 0 1.2-.2 1.7-.4v.8c-.6.3-1.2.4-1.8.4-1.8 0-2.9-1.3-2.9-3.2 0-1.8.8-3.1 2.7-3.1 1.6 0 2.1 1.2 2.1 2.6v.8zm-3.9-.8h2.9c0-1-.3-1.7-1.2-1.7s-1.5.7-1.7 1.7zM102.843 194.528l.2.7c.4-.5.9-.8 1.5-.8.2 0 .4 0 .5.1.2 0 .3.1.5.2l-.3.8c-.3-.1-.6-.2-.9-.2-.5 0-1 .3-1.3.8v4.6h-.8v-6.1l.6-.1zM111.543 199.928l-.4.8c-.4-.1-.8-.2-1.1-.5-.4-.3-.8-.7-1.1-1-.3-.3-.6-.7-.9-1.1-.1-.1-.2-.3-.3-.4 0-.1-.1-.1-.1-.2v3.1h-.9v-8.4l.9-.2h.1v5.3l2.5-2.9h1.2l-2.6 3c.1.3.3.5.5.7.3.4.7.7 1.1 1 .3.4.7.7 1.1.8zM116.643 197.828h-3.9c0 1.1.8 2.1 2 2.1h.1c.6 0 1.2-.2 1.7-.4v.8c-.6.3-1.2.4-1.8.4-1.8 0-2.9-1.3-2.9-3.2 0-1.8.8-3.1 2.7-3.1 1.6 0 2.1 1.2 2.1 2.6v.8zm-3.8-.8h2.9c0-1-.3-1.7-1.2-1.7s-1.6.7-1.7 1.7zM121.243 199.628c.5.2 1 .3 1.5.3.7 0 1.6-.3 1.6-1 0-.3-.2-.6-.5-.7-.4-.2-1-.4-1.6-.7-.6-.3-1-.8-1-1.5 0-1.2 1-1.6 2.1-1.6.4 0 .9.1 1.3.2v.8c-.5-.1-.9-.2-1.4-.2-.6 0-1.1.2-1.1.7 0 .3.2.6.5.7.4.3 1.1.5 1.7.8.5.2.9.8.8 1.3 0 .6-.3 1.2-.8 1.5-.5.3-1.1.5-1.8.5-.5 0-1-.1-1.4-.3l.1-.8zM126.643 194.528v-1.1l.9-.2h.1v1.3h1.7v.8h-1.7v3c0 .4.1.8.3 1.2.2.2.5.4.8.4.4 0 .8-.1 1.2-.4l.3.8c-.5.2-1 .4-1.5.4s-1-.2-1.4-.5c-.4-.5-.6-1.2-.6-1.8v-3h-.7v-.8l.6-.1zM135.543 197.828h-3.9c0 1.1.8 2.1 2 2.1h.1c.6 0 1.2-.2 1.7-.4v.8c-.6.3-1.2.4-1.8.4-1.8 0-2.9-1.3-2.9-3.2 0-1.8.8-3.1 2.7-3.1 1.6 0 2.1 1.2 2.1 2.6v.8zm-3.9-.8h2.9c0-1-.3-1.7-1.2-1.7s-1.5.7-1.7 1.7zM141.143 200.628l-.2-.5c-.5.4-1.1.7-1.8.7-.8 0-1.5-.4-2-1-.5-.7-.8-1.5-.7-2.3-.1-1.6 1.1-3 2.7-3.1h.5c.4 0 .8 0 1.2.1v-2.3l.9-.1h.1v8.5h-.7zm-.4-1.4v-3.8c-.4-.2-.8-.2-1.2-.2-.6 0-1.1.2-1.5.6-.4.5-.6 1.1-.6 1.7 0 .6.1 1.1.4 1.6.3.5.9.7 1.4.7.6.1 1.2-.1 1.5-.6zM148.043 197.828h-3.9c0 1.1.8 2.1 2 2.1h.1c.6 0 1.2-.2 1.7-.4v.8c-.6.3-1.2.4-1.8.4-1.8 0-2.9-1.3-2.9-3.2 0-1.8.8-3.1 2.7-3.1 1.6 0 2.1 1.2 2.1 2.6v.8zm-3.9-.8h2.9c0-1-.3-1.7-1.2-1.7s-1.5.7-1.7 1.7zM150.043 194.528l.2.6c.3-.2.6-.3.9-.5.3-.1.6-.2 1-.2 1.1-.1 2.1.7 2.2 1.8v4.4h-.9v-3.9c0-.4-.1-.9-.4-1.2-.3-.2-.6-.3-1-.3-.3 0-.6.1-.9.2-.3.1-.5.2-.8.4v4.8h-.9v-6.1h.6zM47.811 153.846l.3-.1 23.3 66.7-.3.1-23.3-66.7z"/><g><path d="M48.311 186.986c-1.7-1.2-2.5 0-3.5-.1-.9-.1-1.7-1.5-2.4-1.1-1.3.7.5 3 1.3 3.4l1.8.9c1 .4 1.6 1.3 1.6 2.4 0 .4 0 .8-.1 1.1-.5 2-4.1 3.8-6.2 2.4-1.1-.6-1.9-1.7-2.2-3-.6-2.6-2.5-4.6-3.1-7.1-.4-1.6-.7-3.2-1.1-4.8-.4-1.6-.9-3.2-1.2-4.7-.4-1.6-.9-3.2-1.5-4.7-2-5-2.9-4.7-2.9-4.7s.7 1.4 3.3 13.7c.4 2.6 1 5.2 1.8 7.7.2.6.7 2 1 2.6.8 1.8 3 4.4 3.2 6.8.1 1.4.2 2.5.3 3.6.1.7.2 1.4.4 2.1.5 1.5 4.9 6.2 9.5 6.2v-3.6c-3.2-.1-6.3-1-9-2.8.1-.9.2-1.7.5-2.6.5-1.6 2-2.8 3.7-2.9 2.2-.2 3.5.5 4.7.5l.1-11.3zM28.511 173.986c-.2 2.7-4.4 6.4-5.8 8.7-.7 1.4-1.3 2.8-1.7 4.3-.5 2.4-.1 4.9 1 7.1 1.4 3.3-.2 4.5.9 3.8 1.4-1.1 1.2-3.6 1.1-5.2-.1-1.4-.1-2.9 0-4.3.4-2.9 2.2-5.9 3.7-8.1 1.2-1.8 1.5-4.2.8-6.3M29.311 181.586s.5 2.1-1.5 7.6c-5.1 14.3 4.6 15.7 7.3 19.1 0 0 1.1-1.5-3.3-6.1-1.6-1.7-3-5.5-1.8-10.9 1.9-7.8-.7-9.7-.7-9.7M19.811 172.186c-.2-.7-.3-1.5-.3-2.3.3-3.3 3.4-4.7 4.2-5.2 0 0 1.4-.9 1.6-1.9.8 2.1 0 4.4-1.9 5.6-1.5.9-2.8 2.2-3.6 3.8M27.711 168.986c.2.3 1.5 2.2-3.8 6.4s-3.7 7.4-3.7 7.4-5.7-3.1.9-8.4 5.2-6.4 5.2-6.4c.6 0 1.1.4 1.4 1M34.611 170.586c.9.1 1.5 2.9 3.6 3.5 1.6.4 3.2.2 3.6 1.1-.7.4-.2 1.6.6 1.4.6-1.6.9-7.9-7.8-6zm2.9 1.3c.1-.2.2 0 .4-.2.2-.3.6-.6.9-.7.3-.1.7-.1 1 .1.2 0 .1.5-.1.6-.3.2-1.1-.1-1.1.5 0 1 1.4 0 2.1 0 .4 2.4-3.8 1.7-3.2-.3z"/></g></g></svg>